HIERARCHY
ROOT Hips
{
	OFFSET 0.000000 0.000000 0.000000
	CHANNELS 6 Xposition Yposition Zposition Xrotation Yrotation Zrotation
	JOINT LeftUpLeg_virtual
	{
		OFFSET 0.000000 0.000000 0.000000
		CHANNELS 3 Xrotation Yrotation Zrotation
		JOINT LeftUpLeg
		{
			OFFSET 10.205400 -3.823500 0.155100
			CHANNELS 3 Xrotation Yrotation Zrotation
			JOINT LeftLeg
			{
				OFFSET 0.708757 -12.982077 0.567790
				CHANNELS 3 Xrotation Yrotation Zrotation
				JOINT LeftFoot
				{
					OFFSET -0.708756 -10.717838 -2.184338
					CHANNELS 3 Xrotation Yrotation Zrotation
					JOINT LeftToeBase
					{
						OFFSET 0.108149 -7.191104 7.560241
						CHANNELS 3 Xrotation Yrotation Zrotation
						JOINT LeftToe_End
						{
							OFFSET 0.070230 0.081724 4.490308
							CHANNELS 3 Xrotation Yrotation Zrotation
							End Site
							{
								OFFSET 0 0 0
							}
						}
					}
				}
			}
		}
	}
	JOINT RightUpLeg_virtual
	{
		OFFSET 0.000000 0.000000 0.000000
		CHANNELS 3 Xrotation Yrotation Zrotation
		JOINT RightUpLeg
		{
			OFFSET -10.205400 -3.823500 0.005500
			CHANNELS 3 Xrotation Yrotation Zrotation
			JOINT RightLeg
			{
				OFFSET -0.708756 -12.982134 0.610632
				CHANNELS 3 Xrotation Yrotation Zrotation
				JOINT RightFoot
				{
					OFFSET 0.708754 -10.717769 -1.945823
					CHANNELS 3 Xrotation Yrotation Zrotation
					JOINT RightToeBase
					{
						OFFSET -0.108140 -7.191069 7.372968
						CHANNELS 3 Xrotation Yrotation Zrotation
						JOINT RightToe_End
						{
							OFFSET -0.070227 0.081735 4.479403
							CHANNELS 3 Xrotation Yrotation Zrotation
							End Site
							{
								OFFSET 0 0 0
							}
						}
					}
				}
			}
		}
	}
	JOINT Spine_virtual
	{
		OFFSET 0.000000 0.000000 0.000000
		CHANNELS 3 Xrotation Yrotation Zrotation
		JOINT Spine
		{
			OFFSET 0.000000 6.876099 0.125700
			CHANNELS 3 Xrotation Yrotation Zrotation
			JOINT Spine1
			{
				OFFSET 0.000000 5.730043 0.104720
				CHANNELS 3 Xrotation Yrotation Zrotation
				JOINT Spine1_split
				{
					OFFSET 0.000000 5.730043 0.104720
					CHANNELS 3 Xrotation Yrotation Zrotation
					JOINT Spine2
					{
						OFFSET 0.000000 5.730043 0.104720
						CHANNELS 3 Xrotation Yrotation Zrotation
						JOINT Neck_virtual
						{
							OFFSET 0.000000 0.000000 0.000000
							CHANNELS 3 Xrotation Yrotation Zrotation
							JOINT Neck
							{
								OFFSET 0.000000 10.314075 0.188496
								CHANNELS 3 Xrotation Yrotation Zrotation
								JOINT Head
								{
									OFFSET 0.000000 7.643700 -2.377400
									CHANNELS 3 Xrotation Yrotation Zrotation
									JOINT HeadTop_End
									{
										OFFSET 0.000000 43.788605 -13.619600
										CHANNELS 3 Xrotation Yrotation Zrotation
										End Site
										{
											OFFSET 0 0 0
										}
									}
								}
							}
						}
						JOINT LeftShoulder_virtual
						{
							OFFSET 0.000000 0.000000 0.000000
							CHANNELS 3 Xrotation Yrotation Zrotation
							JOINT LeftShoulder
							{
								OFFSET 2.196100 4.412489 0.087492
								CHANNELS 3 Xrotation Yrotation Zrotation
								JOINT LeftShoulder_split
								{
									OFFSET 2.196100 4.412489 0.087492
									CHANNELS 3 Xrotation Yrotation Zrotation
									JOINT LeftArm
									{
										OFFSET 8.771219 -2.981674 -0.026999
										CHANNELS 3 Xrotation Yrotation Zrotation
										JOINT LeftForeArm
										{
											OFFSET 8.512804 0.000000 -0.000000
											CHANNELS 3 Xrotation Yrotation Zrotation
											JOINT LeftHand
											{
												OFFSET 18.484802 0.000000 -0.000000
												CHANNELS 3 Xrotation Yrotation Zrotation
												End Site
												{
													OFFSET 0 0 0
												}
											}
										}
									}
								}
							}
						}
						JOINT RightShoulder_virtual
						{
							OFFSET 0.000000 0.000000 0.000000
							CHANNELS 3 Xrotation Yrotation Zrotation
							JOINT RightShoulder
							{
								OFFSET -2.196100 4.412496 0.070690
								CHANNELS 3 Xrotation Yrotation Zrotation
								JOINT RightShoulder_split
								{
									OFFSET -2.196100 4.412496 0.070690
									CHANNELS 3 Xrotation Yrotation Zrotation
									JOINT RightArm
									{
										OFFSET -8.771282 -2.981682 -0.094208
										CHANNELS 3 Xrotation Yrotation Zrotation
										JOINT RightForeArm
										{
											OFFSET -8.494598 0.000000 0.000000
											CHANNELS 3 Xrotation Yrotation Zrotation
											JOINT RightHand
											{
												OFFSET -18.483803 0.000000 0.000001
												CHANNELS 3 Xrotation Yrotation Zrotation
												End Site
												{
													OFFSET 0 0 0
												}
											}
										}
									}
								}
							}
						}
					}
				}
			}
		}
	}
}
MOTION
Frames: 11
Frame Time: 0.03333333
0.074494 29.230804 0.119467 0.000000 0.000000 0.000000 -10.673515 -53.571322 -2.791280 -23.000070 11.249301 28.535057 44.110437 -8.673457 -1.932167 -10.941565 4.557952 -21.117586 -2.483951 -0.000007 0.000005 0.000000 0.000000 0.000000 -10.673515 -53.571322 -2.791280 -25.412141 5.910596 -30.392884 64.049983 9.602609 -8.018123 -27.893670 -9.349477 23.809288 -2.290862 0.000051 0.000004 0.000000 0.000000 0.000000 -10.673515 -53.571322 -2.791280 6.694496 0.902019 -2.268576 13.440112 1.505927 -5.282125 0.000000 0.000000 0.000000 0.000000 0.000000 0.000000 13.440113 1.505924 -5.282123 3.996209 2.607467 -0.466377 -8.638518 40.681317 -5.376920 0.000000 0.000000 0.000000 13.440113 1.505924 -5.282123 -0.177278 -6.033945 5.204495 0.000000 0.000000 0.000000 -21.071663 17.785778 -57.231477 -179.999991 -53.681240 -179.999991 0.000000 0.000000 0.000000 13.440113 1.505924 -5.282123 10.920055 26.931052 3.130402 0.000000 0.000000 0.000000 -46.478160 38.185866 48.496095 179.999978 69.435505 179.999978 0.000000 0.000000 0.000000 
-0.190384 29.313908 -0.269991 0.000000 0.000000 0.000000 -10.721466 -51.979293 -1.997733 -22.111771 10.364787 26.903096 40.522764 -8.350186 -0.477661 -7.833307 5.065400 -22.530339 -5.669426 0.000008 -0.000005 0.000000 0.000000 0.000000 -10.721466 -51.979293 -1.997733 -24.472040 5.248743 -30.231664 66.166576 8.931031 -7.379863 -31.098934 -10.544127 20.264724 -1.965017 0.000005 -0.000007 0.000000 0.000000 0.000000 -10.721466 -51.979293 -1.997733 7.700621 0.219504 -3.324311 13.471028 1.247502 -5.375650 0.000000 0.000000 0.000000 0.000000 0.000000 0.000000 13.463746 1.291651 -5.383118 3.970778 2.575106 -0.513148 -6.939622 39.500299 -7.024654 0.000000 0.000000 0.000000 13.463746 1.291651 -5.383118 -0.604227 -6.510281 2.042955 0.000000 0.000000 0.000000 -15.274328 19.486403 -56.458077 179.999991 -51.120401 -179.999991 0.000000 0.000000 0.000000 13.463746 1.291651 -5.383118 10.874084 26.686430 2.331212 0.000000 0.000000 0.000000 -47.669891 38.728966 52.535670 179.999964 74.887328 179.999978 0.000000 0.000000 0.000000 
-0.420259 29.393482 -0.714478 0.000000 0.000000 0.000000 -9.885259 -48.275985 -0.754702 -25.713588 6.097550 25.783479 39.727577 -7.197670 1.756500 0.664941 2.084409 -26.196632 -8.253362 0.000017 0.000006 0.000000 0.000000 0.000000 -9.885259 -48.275985 -0.754702 -21.856248 3.651293 -30.223256 67.176516 9.179843 -5.873512 -34.370226 -13.583982 16.815513 -2.401753 0.000036 0.000010 0.000000 0.000000 0.000000 -9.885259 -48.275985 -0.754702 11.205840 0.337222 -4.260798 13.743580 1.075065 -5.733796 0.000000 0.000000 0.000000 0.000000 0.000000 0.000000 13.747221 1.106307 -5.720682 3.149079 2.157398 -0.468787 -10.603134 33.243945 -7.617217 0.000000 0.000000 0.000000 13.747221 1.106307 -5.720682 -0.478519 -7.847185 1.562674 0.000000 0.000000 0.000000 -13.760034 17.595756 -53.833779 179.999991 -49.527030 -179.999991 0.000000 0.000000 0.000000 13.747221 1.106307 -5.720682 10.980247 26.274281 0.074712 0.000000 0.000000 0.000000 -50.899943 37.184001 56.537724 179.999964 80.068723 -179.999991 0.000000 0.000000 0.000000 
-0.704369 29.528648 -1.249378 0.000000 0.000000 0.000000 -8.637310 -41.993311 0.687024 -33.735561 -0.310989 23.940742 36.913245 -8.289525 4.062810 19.556128 -5.621126 -29.092771 -16.279040 -0.013246 0.117968 0.000000 0.000000 0.000000 -8.637310 -41.993311 0.687024 -18.027682 0.876966 -30.332686 67.685208 10.596120 -3.400994 -36.955575 -18.233989 13.367842 -3.674369 0.000046 0.000000 0.000000 0.000000 0.000000 -8.637310 -41.993311 0.687024 17.916478 1.237136 -4.578936 14.257637 1.175854 -6.173258 0.000000 0.000000 0.000000 0.000000 0.000000 0.000000 14.271714 1.144411 -6.159653 1.030293 1.366862 -0.531300 -18.064117 21.785728 -7.186360 0.000000 0.000000 0.000000 14.271714 1.144411 -6.159653 0.113013 -10.231144 2.620922 0.000000 0.000000 0.000000 -19.533106 10.946754 -46.589403 179.999991 -49.272281 179.999991 0.000000 0.000000 0.000000 14.271714 1.144411 -6.159653 11.028391 25.558194 -3.395079 0.000000 0.000000 0.000000 -55.659584 32.942771 57.345968 179.999978 83.107816 -179.999978 0.000000 0.000000 0.000000 
-1.110522 29.820465 -1.865332 0.000000 0.000000 0.000000 -6.874558 -33.974898 2.432950 -39.522084 -3.711309 21.228715 17.391651 -13.073047 4.857575 47.471457 -17.152005 -32.562223 -14.134212 -0.500501 2.246970 0.000000 0.000000 0.000000 -6.874558 -33.974898 2.432950 -13.746504 -2.967095 -30.329486 66.470404 11.870781 -0.569261 -37.248003 -23.444577 12.754671 -6.190179 0.000072 -0.000002 0.000000 0.000000 0.000000 -6.874558 -33.974898 2.432950 26.857981 2.450477 -4.110268 14.655825 1.519293 -6.126756 0.000000 0.000000 0.000000 0.000000 0.000000 0.000000 14.662867 1.483531 -6.167035 -2.406591 0.431384 -0.934286 -25.480997 7.746946 -5.946671 0.000000 0.000000 0.000000 14.662867 1.483531 -6.167035 0.825253 -13.394397 3.259606 0.000000 0.000000 0.000000 -30.529737 1.995656 -37.132016 -179.999991 -50.516612 179.999991 0.000000 0.000000 0.000000 14.662867 1.483531 -6.167035 10.629971 24.503664 -7.123629 0.000000 0.000000 0.000000 -60.104879 27.021463 52.261968 179.999786 83.029453 -179.999855 0.000000 0.000000 0.000000 
-1.617569 30.397659 -2.754673 0.000000 0.000000 0.000000 -4.173309 -26.101988 4.743464 -50.657898 -6.535259 17.675092 12.863569 -11.704077 4.268928 48.402050 -19.235783 -29.724129 3.584094 0.000005 -0.000007 0.000000 0.000000 0.000000 -4.173309 -26.101988 4.743464 -11.577241 -6.152181 -30.163895 63.480058 11.752944 1.424402 -33.578033 -26.320301 16.736028 -8.421734 -0.020961 0.807240 0.000000 0.000000 0.000000 -4.173309 -26.101988 4.743464 35.694678 3.338986 -3.706310 14.524297 1.900858 -5.564956 0.000000 0.000000 0.000000 0.000000 0.000000 0.000000 14.508036 1.932581 -5.698225 -6.380450 -0.304770 -1.714036 -28.951710 -4.463814 -3.802722 0.000000 0.000000 0.000000 14.508036 1.932581 -5.698225 1.346261 -16.566402 2.844984 0.000000 0.000000 0.000000 -42.339830 -6.338936 -29.746553 179.999991 -53.424435 179.999991 0.000000 0.000000 0.000000 14.508036 1.932581 -5.698225 9.778212 23.398440 -10.255324 0.000000 0.000000 0.000000 -63.885129 21.703517 42.109230 -179.999991 82.594978 179.999923 0.000000 0.000000 0.000000 
-2.306005 31.185257 -4.050495 0.000000 0.000000 0.000000 -0.766091 -19.445456 7.445678 -60.491372 -6.667674 16.067052 11.747376 -5.999385 2.696458 46.047377 -13.418766 -28.081416 5.176629 -0.000014 0.000011 0.000000 0.000000 0.000000 -0.766091 -19.445456 7.445678 -13.966966 -7.993680 -29.498761 61.459579 9.821067 1.286089 -31.629226 -23.027341 17.109200 -10.885693 0.003212 -0.048075 0.000000 0.000000 0.000000 -0.766091 -19.445456 7.445678 42.888209 3.519741 -4.084712 14.039427 2.057633 -5.007959 0.000000 0.000000 0.000000 0.000000 0.000000 0.000000 14.014496 2.127451 -5.192612 -9.715703 -0.662647 -2.567618 -27.502807 -11.941729 -1.031549 0.000000 0.000000 0.000000 14.014496 2.127451 -5.192612 1.441039 -18.951866 1.205702 0.000000 0.000000 0.000000 -53.065365 -15.358288 -25.319049 179.999991 -59.238968 179.999991 0.000000 0.000000 0.000000 14.014496 2.127451 -5.192612 9.406384 22.684194 -13.464536 0.000000 0.000000 0.000000 -67.827310 17.937243 29.820982 179.999800 85.982875 -179.999814 0.000000 0.000000 0.000000 
-3.103419 31.691921 -5.553322 0.000000 0.000000 0.000000 2.072013 -13.942258 9.692929 -67.545400 -4.583239 15.116320 11.040554 1.757952 0.413148 45.065038 -8.200136 -21.955971 3.502156 -0.000008 0.000001 0.000000 0.000000 0.000000 2.072013 -13.942258 9.692929 -16.616460 -9.284397 -28.524378 58.781742 7.598865 0.142079 -35.908821 -16.763545 15.519484 -6.951419 0.000058 0.000001 0.000000 0.000000 0.000000 2.072013 -13.942258 9.692929 48.604524 3.570875 -4.634430 13.654258 1.987815 -4.562902 0.000000 0.000000 0.000000 0.000000 0.000000 0.000000 13.643544 2.035845 -4.737190 -11.506278 -0.729612 -3.006016 -23.378173 -14.723084 1.348457 0.000000 0.000000 0.000000 13.643544 2.035845 -4.737190 2.423876 -20.035390 2.618531 0.000000 0.000000 0.000000 -64.111202 -23.336588 -27.027373 179.999991 -68.190867 -179.999991 0.000000 0.000000 0.000000 13.643544 2.035845 -4.737190 10.717506 22.253629 -18.687857 0.000000 0.000000 0.000000 -73.073544 14.568522 18.887312 0.000075 85.501940 -0.000064 0.000000 0.000000 0.000000 
-3.622874 31.715290 -6.884214 0.000000 0.000000 0.000000 2.986103 -8.943446 10.991242 -73.725526 -1.683970 12.596679 15.817041 4.231652 -2.256981 37.042233 -3.796371 -15.797387 1.178224 -0.000003 -0.000000 0.000000 0.000000 0.000000 2.986103 -8.943446 10.991242 -15.698283 -10.364662 -27.533881 55.457198 3.747160 -0.174225 -42.051716 -14.109359 17.051328 -3.339210 0.000005 0.000007 0.000000 0.000000 0.000000 2.986103 -8.943446 10.991242 53.694644 3.995138 -4.359250 13.540369 1.907254 -3.911104 0.000000 0.000000 0.000000 0.000000 0.000000 0.000000 13.540401 1.920953 -4.070661 -11.404375 -0.706036 -2.663995 -19.146972 -14.655361 2.913405 0.000000 0.000000 0.000000 13.540401 1.920953 -4.070661 3.812779 -19.702922 5.572020 0.000000 0.000000 0.000000 -78.296371 -28.939696 -34.451430 -179.999991 -79.569545 -179.999991 0.000000 0.000000 0.000000 13.540401 1.920953 -4.070661 12.778347 21.386999 -24.267520 0.000000 0.000000 0.000000 -79.934708 12.680291 11.735350 -0.000023 74.968703 0.000004 0.000000 0.000000 0.000000 
-3.941524 31.423115 -7.928152 0.000000 0.000000 0.000000 1.799201 -3.997030 11.537053 -77.882011 1.573156 9.339021 23.889230 4.235160 -4.543235 28.138733 -2.146067 -10.799612 -0.067885 -0.000001 -0.000000 0.000000 0.000000 0.000000 1.799201 -3.997030 11.537053 -15.068885 -10.944393 -25.963484 59.543335 -1.106339 0.099685 -46.851638 -14.205872 14.758241 -1.234420 0.000010 0.000006 0.000000 0.000000 0.000000 1.799201 -3.997030 11.537053 58.234896 4.489535 -3.036377 13.532510 1.820490 -2.931183 0.000000 0.000000 0.000000 0.000000 0.000000 0.000000 13.531562 1.819972 -3.089558 -9.510240 -0.711829 -1.535319 -15.303414 -13.567595 4.755975 0.000000 0.000000 0.000000 13.531562 1.819972 -3.089558 5.030805 -17.972367 9.123488 0.000000 0.000000 0.000000 -94.241871 -28.001826 -44.728611 -0.000639 -89.732389 0.001506 0.000000 0.000000 0.000000 13.531562 1.819972 -3.089558 13.276225 19.598869 -26.812625 0.000000 0.000000 0.000000 -85.885100 12.003917 10.211621 0.000073 71.001558 -0.000059 0.000000 0.000000 0.000000 
-4.271369 30.808704 -8.802523 0.000000 0.000000 0.000000 -0.524163 0.769981 11.677796 -79.255036 4.589332 6.650044 29.910761 3.828785 -6.043976 24.846292 -2.047057 -7.785354 -0.224209 -0.000001 -0.000002 0.000000 0.000000 0.000000 -0.524163 0.769981 11.677796 -12.908696 -12.326237 -24.287938 64.180583 -2.018168 0.589455 -52.162325 -17.744384 11.842989 -0.306010 -0.000005 -0.000004 0.000000 0.000000 0.000000 -0.524163 0.769981 11.677796 61.560454 4.610529 -1.346124 13.433929 1.510989 -1.808383 0.000000 0.000000 0.000000 0.000000 0.000000 0.000000 13.431874 1.505324 -1.931445 -6.320011 -0.751430 -0.010195 -10.480642 -12.524246 8.341066 0.000000 0.000000 0.000000 13.431874 1.505324 -1.931445 5.202376 -15.396626 10.928651 0.000000 0.000000 0.000000 -105.834601 -23.114550 -53.010505 -0.000031 -80.554855 0.000013 0.000000 0.000000 0.000000 13.431874 1.505324 -1.931445 10.994357 17.570747 -23.026041 0.000000 0.000000 0.000000 -86.722044 13.191843 14.609689 -0.000011 76.140654 0.000024 0.000000 0.000000 0.000000 
